<?xml version="1.0" encoding="utf-8"?>
<!-- Generator: Adobe Illustrator 16.0.0, SVG Export Plug-In . SVG Version: 6.00 Build 0)  -->
<!DOCTYPE svg PUBLIC "-//W3C//DTD SVG 1.1//EN" "http://www.w3.org/Graphics/SVG/1.1/DTD/svg11.dtd">
<svg version="1.1" id="basketball" xmlns="http://www.w3.org/2000/svg" xmlns:xlink="http://www.w3.org/1999/xlink" x="0px" y="0px"
	 width="532px" height="540px" viewBox="0 0 532 540" enable-background="new 0 0 532 540" xml:space="preserve">
<path id="color" fill-rule="evenodd" clip-rule="evenodd" fill="#F96830" stroke="#000000" stroke-width="5.2151" stroke-linecap="round" stroke-linejoin="round" d="
	M348.206,516.696c170.556-56.69,228.589-270.768,120.28-410.131C360.146-32.847,134.442-16.05,47.844,137.52
	C-69.096,344.898,123.974,577.572,348.206,516.696"/>
<g id="lines">
	
		<path fill-rule="evenodd" clip-rule="evenodd" stroke="#000000" stroke-width="0.8264" stroke-linecap="round" stroke-linejoin="round" d="
		M158.055,501.229l20.099,8.755c-78.23-37.114-78.364-136.18-66.935-209.498c6.204-39.794,12.698-80.309,7.282-120.625
		c-3.135-23.35-37.44-92.889-64.862-48.556c70.759-52.448,52.842,142.441,48.816,167.178
		C92.365,360.496,90.397,467.782,158.055,501.229"/>
	
		<path fill-rule="evenodd" clip-rule="evenodd" stroke="#000000" stroke-width="1.4901" stroke-linecap="round" stroke-linejoin="round" d="
		M347.757,516.559c-74.613,33.36-141.072-169.837-156.696-217.896c-16.613-51.104-81.534-257.542-2.706-276.364
		c-69.36,20.585-4.869,220.218,9.365,265.983c13.659,43.916,31.027,87.135,52.321,127.905
		C265.925,446.597,303.72,525.884,347.757,516.559"/>
	
		<path fill-rule="evenodd" clip-rule="evenodd" stroke="#000000" stroke-width="2.9802" stroke-linecap="round" stroke-linejoin="round" d="
		M512.489,193.718C438.189-9.376-32.234,142.136,27.262,348.829c-39.267-117.657,101.496-210.376,196.924-239.894
		C310.769,82.153,486.768,74.056,512.489,193.718"/>
	
		<path fill-rule="evenodd" clip-rule="evenodd" stroke="#000000" stroke-width="0.8264" stroke-linecap="round" stroke-linejoin="round" d="
		M482.054,412.929v3.863c19.299-30.916-27.521-84.649-48.258-104.932c-36.127-35.334-80.446-59.551-122.192-87.307
		c-45.492-30.25-94.786-67.063-81.722-129.103c12.17-57.802,78.022-86.695,131.275-70.376
		C316.199,7.44,258.113,21.95,233.066,65.855c-28.509,49.974-8.93,103.261,33.665,137.335
		C339.273,261.217,470.293,305.641,482.054,412.929"/>
</g>
</svg>
